<svg width="20" height="20" viewBox="0 0 20 20" fill="none" xmlns="http://www.w3.org/2000/svg">
<g id="add-team">
<path id="Vector" d="M10 6.25004C10 7.86087 8.69417 9.16671 7.08333 9.16671C5.4725 9.16671 4.16667 7.86087 4.16667 6.25004C4.16667 4.63921 5.4725 3.33337 7.08333 3.33337C8.69417 3.33337 10 4.63921 10 6.25004Z" stroke="#1B4E7C" stroke-width="1.5"/>
<path id="Vector_2" d="M11.25 9.16671C12.8608 9.16671 14.1667 7.86087 14.1667 6.25004C14.1667 4.63921 12.8608 3.33337 11.25 3.33337" stroke="#1B4E7C" stroke-width="1.5" stroke-linecap="round"/>
<path id="Vector_3" d="M10.9524 16.6666H3.21428C2.35956 16.6666 1.66667 16.027 1.66667 15.238C1.66667 13.2656 3.3989 11.6666 5.53572 11.6666H8.63092C9.50192 11.6666 10.3058 11.9323 10.9524 12.3806" stroke="#1B4E7C" stroke-width="1.5" stroke-linecap="round" stroke-linejoin="round"/>
<path id="Vector_4" d="M15.8333 11.6666V16.6666M18.3333 14.1666H13.3333" stroke="#1B4E7C" stroke-width="1.5" stroke-linecap="round"/>
</g>
</svg>
