<svg width="11" height="12" viewBox="0 0 11 12" fill="none" xmlns="http://www.w3.org/2000/svg">
<path id="&#239;&#131;&#134;" d="M3.46875 12C2.51562 12 1.69531 11.6562 1.00781 10.9688C0.335938 10.2969 0 9.48438 0 8.53125C0 7.5625 0.34375 6.74219 1.03125 6.07031L6.30469 0.773438C6.82031 0.257812 7.44531 0 8.17969 0C8.92969 0 9.5625 0.265625 10.0781 0.796875C10.6094 1.3125 10.875 1.94531 10.875 2.69531C10.875 3.42969 10.6094 4.05469 10.0781 4.57031L5.64844 9.02344C5.27344 9.38281 4.82812 9.5625 4.3125 9.5625C3.79688 9.5625 3.35156 9.38281 2.97656 9.02344C2.60156 8.64844 2.41406 8.20312 2.41406 7.6875C2.41406 7.17188 2.60156 6.72656 2.97656 6.35156L6.75 2.57812C6.875 2.45312 7 2.45312 7.125 2.57812L7.52344 2.97656C7.66406 3.11719 7.66406 3.25 7.52344 3.375L3.77344 7.14844C3.61719 7.28906 3.53906 7.46875 3.53906 7.6875C3.53906 7.89062 3.61719 8.07031 3.77344 8.22656C3.92969 8.36719 4.10938 8.4375 4.3125 8.4375C4.53125 8.4375 4.71094 8.36719 4.85156 8.22656L9.30469 3.77344C9.60156 3.47656 9.75 3.11719 9.75 2.69531C9.75 2.25781 9.59375 1.89062 9.28125 1.59375C8.98438 1.28125 8.61719 1.125 8.17969 1.125C7.75781 1.125 7.39062 1.27344 7.07812 1.57031L1.80469 6.84375C1.35156 7.3125 1.125 7.875 1.125 8.53125C1.125 9.17188 1.35156 9.72656 1.80469 10.1953C2.27344 10.6484 2.82812 10.875 3.46875 10.875C4.125 10.875 4.6875 10.6406 5.15625 10.1719C6.6875 8.64062 8.21094 7.10938 9.72656 5.57812C9.86719 5.45312 10 5.45312 10.125 5.57812L10.5234 5.97656C10.6641 6.11719 10.6641 6.25 10.5234 6.375C8.97656 7.9375 7.45312 9.46875 5.95312 10.9688C5.26562 11.6562 4.4375 12 3.46875 12Z" fill="#363636"/>
</svg>
