<svg width="12" height="12" viewBox="0 0 12 12" fill="none" xmlns="http://www.w3.org/2000/svg">
<g id="Cross">
<path id="icon" d="M1.67574 1.67574C1.44142 1.91005 1.44142 2.28995 1.67574 2.52426L4.85772 5.70624C4.97487 5.8234 4.97487 6.01335 4.85772 6.13051L1.67574 9.31249C1.44142 9.5468 1.44142 9.9267 1.67574 10.161C1.91005 10.3953 2.28995 10.3953 2.52426 10.161L5.70624 6.97904C5.8234 6.86188 6.01335 6.86188 6.13051 6.97904L9.31249 10.161C9.5468 10.3953 9.9267 10.3953 10.161 10.161C10.3953 9.9267 10.3953 9.5468 10.161 9.31249L6.97904 6.13051C6.86188 6.01335 6.86188 5.8234 6.97904 5.70624L10.161 2.52426C10.3953 2.28995 10.3953 1.91005 10.161 1.67574C9.9267 1.44142 9.5468 1.44142 9.31249 1.67574L6.13051 4.85772C6.01335 4.97487 5.8234 4.97487 5.70624 4.85772L2.52426 1.67574C2.28995 1.44142 1.91005 1.44142 1.67574 1.67574Z" fill="#1B4E7C"/>
</g>
</svg>
