<svg width="82" height="82" viewBox="0 0 82 82" fill="none" xmlns="http://www.w3.org/2000/svg">
<g id="file-02">
<path id="Vector" d="M27.3333 58.0834H54.6666" stroke="#1B4E7C" stroke-width="3" stroke-linecap="round" stroke-linejoin="round"/>
<path id="Vector_2" d="M27.3333 44.4166H40.9999" stroke="#1B4E7C" stroke-width="3" stroke-linecap="round" stroke-linejoin="round"/>
<path id="Vector_3" d="M44.4168 8.54171V10.25C44.4168 19.9138 44.4168 24.7457 47.419 27.7479C50.4212 30.75 55.2531 30.75 64.9168 30.75H66.6251M68.3334 36.4111V47.8334C68.3334 60.7183 68.3334 67.1611 64.3305 71.1637C60.3278 75.1667 53.885 75.1667 41.0001 75.1667C28.115 75.1667 21.6725 75.1667 17.6696 71.1637C13.6667 67.1611 13.6667 60.7183 13.6667 47.8334V32.3075C13.6667 21.2203 13.6667 15.6768 16.6942 11.9219C17.3058 11.1633 17.9967 10.4724 18.7553 9.86078C22.5101 6.83337 28.0537 6.83337 39.1407 6.83337C41.5515 6.83337 42.7566 6.83337 43.8605 7.22291C44.0901 7.30392 44.3149 7.39712 44.5346 7.50219C45.5907 8.00717 46.4428 8.85946 48.1474 10.564L64.3305 26.7472C66.3056 28.7222 67.293 29.7097 67.8134 30.9655C68.3334 32.2213 68.3334 33.6178 68.3334 36.4111Z" stroke="#1B4E7C" stroke-width="3" stroke-linecap="round" stroke-linejoin="round"/>
</g>
</svg>
